{"title":"Fast &amp; Furious (2009) R5 Nl subs Nlt Release by Zero Yuy","uid":4875063,"size":731798424,"categoryP":"video","categoryS":"movies","magnet":"?xt=urn:btih:37890abddeb68faee60bf46a8bd0bd276ef9be67&amp;dn=Fast+%26+Furious+%282009%29+R5+Nl+subs+Nlt+Release+by+Zero+Yuy&amp;tr=udp%3A%2F%2Ftracker.openbittorrent.com%3A80&amp;tr=udp%3A%2F%2Fopen.demonii.com%3A1337&amp;tr=udp%3A%2F%2Ftracker.coppersurfer.tk%3A6969&amp;tr=udp%3A%2F%2Fexodus.desync.com%3A6969","seeders":1,"leechers":0,"uploader":"zeroyuy","files":-1,"time":1241082080,"description":"Heading back to the streets where it all began, two men rejoin two women to blast muscle, tuner and exotic cars across Los Angeles and floor through the Mexican desert. When a crime brings them back to L.A., fugitive ex-con Dom Toretto reignites his feud with agent Brian O'Connor. But as they are forced to confront a shared enemy, Dom and Brian must give in to an uncertain new trust if they hope to outmaneuver him. And from convoy heists to precision tunnel crawls across international lines, two men will find the best way to get revenge: push the limits of what's possible behind the wheel.  Written by Universal Studios \n\n\nVideo Info:\n\nGeneral\nFormat                           : AVI\nFormat/Info                      : Audio Video Interleave\nFile size                        : 698 MiB\nDuration                         : 1h 42mn\nOverall bit rate                 : 953 Kbps\nWriting application              : FairUse Wizard - http://fairusewizard.com\nWriting library                  : The best and REALLY easy backup tool\n\nVideo\nFormat                           : MPEG-4 Visual\nFormat profile                   : Streaming Video@L1\nFormat settings, BVOP            : Yes\nFormat settings, QPel            : No\nFormat settings, GMC             : No warppoints\nFormat settings, Matrix          : Default\nMuxing mode                      : Packed bitstream\nCodec ID                         : XVID\nCodec ID/Hint                    : XviD\nDuration                         : 1h 42mn\nBit rate                         : 815 Kbps\nWidth                            : 544 pixels\nHeight                           : 304 pixels\nDisplay aspect ratio             : 16/9\nFrame rate                       : 25.000 fps\nResolution                       : 24 bits\nColorimetry                      : 4:2:0\nScan type                        : Progressive\nBits/(Pixel*Frame)               : 0.197\nStream size                      : 597 MiB (86%)\nWriting library                  : XviD 1.2.0.dev47 (UTC 2006-11-01)\n\nAudio\nFormat                           : MPEG Audio\nFormat version                   : Version 1\nFormat profile                   : Layer 3\nCodec ID                         : 55\nCodec ID/Hint                    : MP3\nDuration                         : 1h 42mn\nBit rate mode                    : Constant\nBit rate                         : 128 Kbps\nMinimum bit rate                 : 128 Kbps\nChannel(s)                       : 2 channels\nSampling rate                    : 48.0 KHz\nResolution                       : 16 bits\nStream size                      : 93.7 MiB (13%)\nAlignment                        : Aligned on interleaves\nInterleave, duration             : 40 ms (1.00 video frame)\nInterleave, preload duration     : 504 ms\nWriting library                  : LAME3.97 \nEncoding settings                : CBR\nLanguage:                        : English\nSubtitles:                       : Dutch\n\nBrought to you by Nlt Release @\n &lt;a href=&quot;\nhttp://nlt.ons-forum.nl&quot; rel=&quot;nofollow&quot; target=&quot;_NEW&quot;&gt;\nhttp://nlt.ons-forum.nl&lt;/a&gt;\n","torrent":{"xt":"urn:btih:37890abddeb68faee60bf46a8bd0bd276ef9be67","amp;dn":"Fast+%26+Furious+%282009%29+R5+Nl+subs+Nlt+Release+by+Zero+Yuy","amp;tr":["udp%3A%2F%2Ftracker.openbittorrent.com%3A80","udp%3A%2F%2Fopen.demonii.com%3A1337","udp%3A%2F%2Ftracker.coppersurfer.tk%3A6969","udp%3A%2F%2Fexodus.desync.com%3A6969"],"infoHash":"37890abddeb68faee60bf46a8bd0bd276ef9be67","infoHashBuffer":{"type":"Buffer","data":[55,137,10,189,222,182,143,174,230,11,244,106,139,208,189,39,110,249,190,103]},"announce":[],"urlList":[]}}